<svg id="svg" version="1.1" width="400" height="400.49443757725584" viewBox="0 0 400 400.49443757725584" xmlns="http://www.w3.org/2000/svg" xmlns:xlink="http://www.w3.org/1999/xlink"><g id="svgg"><path id="path0" d="M240.181 81.000 C 240.857 84.033,243.812 86.799,247.200 87.571 C 248.319 87.825,258.163 87.984,273.230 87.990 L 297.461 88.000 298.400 87.000 L 299.339 86.000 273.370 85.996 L 247.400 85.992 245.400 85.047 C 243.477 84.138,242.121 82.933,240.618 80.800 L 239.914 79.800 240.181 81.000 M120.400 99.578 C 110.365 101.708,102.600 108.905,99.319 119.116 L 98.200 122.600 98.200 201.000 L 98.200 279.400 99.158 282.400 C 102.650 293.341,110.812 300.829,121.200 302.621 C 126.718 303.574,278.408 303.295,281.600 302.327 C 292.014 299.167,300.148 290.403,302.009 280.335 C 302.273 278.904,302.377 259.789,302.307 225.371 L 302.200 172.600 301.048 170.600 C 295.358 160.723,281.792 160.766,276.761 170.677 L 275.400 173.358 275.296 224.179 C 275.200 271.259,275.143 275.037,274.520 275.500 C 273.637 276.156,127.598 276.241,126.374 275.586 C 125.156 274.934,125.156 127.066,126.374 126.414 C 126.895 126.135,143.582 126.000,177.585 126.000 L 228.023 126.000 230.311 124.811 C 241.611 118.943,240.215 102.546,228.149 99.404 C 224.295 98.400,125.195 98.560,120.400 99.578 M254.999 158.425 C 223.100 190.339,196.265 216.888,195.368 217.424 C 190.953 220.055,184.993 218.553,182.161 214.095 C 180.798 211.950,180.529 212.176,181.383 214.749 C 183.138 220.031,190.768 222.614,195.400 219.493 C 196.280 218.900,222.830 192.607,254.400 161.065 C 285.970 129.522,312.112 103.548,312.492 103.346 C 313.215 102.961,313.960 100.400,313.349 100.400 C 313.157 100.400,286.899 126.511,254.999 158.425 M332.437 153.911 C 329.533 160.921,318.756 161.595,314.745 155.017 C 314.124 153.999,314.003 153.934,314.001 154.622 C 313.992 159.644,322.610 163.331,327.988 160.606 C 330.573 159.296,333.669 154.808,333.122 153.166 C 333.030 152.889,332.721 153.224,332.437 153.911 " stroke="none" fill="#824c73" fill-rule="evenodd"></path><path id="path1" d="M246.281 66.885 C 243.749 67.557,241.027 70.568,240.029 73.802 L 239.188 76.522 239.999 78.688 C 241.096 81.621,242.611 83.451,245.000 84.729 L 247.000 85.800 273.100 85.911 C 287.455 85.972,299.200 86.163,299.200 86.336 C 299.200 86.508,298.615 87.080,297.900 87.606 C 297.185 88.132,296.269 88.980,295.864 89.490 C 295.459 90.000,269.696 115.839,238.612 146.909 C 176.160 209.334,180.879 204.229,180.281 210.000 C 180.156 211.210,180.182 211.758,180.340 211.217 C 180.606 210.308,180.683 210.377,181.353 212.133 C 183.400 217.493,189.566 220.118,194.623 217.782 C 195.713 217.279,214.212 199.069,254.513 158.827 C 286.586 126.802,313.001 100.540,313.213 100.467 C 313.432 100.391,313.600 101.312,313.600 102.590 C 313.600 103.993,313.449 104.754,313.200 104.600 C 312.935 104.436,312.818 112.616,312.853 128.876 C 312.882 142.364,313.023 152.770,313.168 152.000 L 313.430 150.600 313.725 152.054 C 315.621 161.417,330.699 161.883,332.714 152.640 L 332.985 151.400 333.241 153.000 C 333.382 153.880,333.476 136.600,333.449 114.600 C 333.400 74.906,333.394 74.586,332.563 72.800 C 331.329 70.145,329.685 68.403,327.416 67.347 L 325.400 66.408 286.600 66.445 C 261.948 66.469,247.246 66.630,246.281 66.885 M149.700 98.700 C 163.725 98.758,186.675 98.758,200.700 98.700 C 214.725 98.642,203.250 98.594,175.200 98.594 C 147.150 98.594,135.675 98.642,149.700 98.700 M150.869 126.700 C 164.437 126.758,186.757 126.758,200.469 126.700 C 214.181 126.642,203.080 126.594,175.800 126.594 C 148.520 126.594,137.301 126.642,150.869 126.700 M125.796 201.200 C 125.796 241.790,125.843 258.395,125.900 238.100 C 125.957 217.805,125.957 184.595,125.900 164.300 C 125.843 144.005,125.796 160.610,125.796 201.200 M322.705 162.283 C 323.202 162.379,323.922 162.375,324.305 162.275 C 324.687 162.175,324.280 162.096,323.400 162.101 C 322.520 162.105,322.207 162.187,322.705 162.283 M287.900 163.082 C 288.395 163.178,289.205 163.178,289.700 163.082 C 290.195 162.987,289.790 162.909,288.800 162.909 C 287.810 162.909,287.405 162.987,287.900 163.082 M106.400 295.400 C 107.146 296.170,107.847 296.800,107.957 296.800 C 108.067 296.800,107.546 296.170,106.800 295.400 C 106.054 294.630,105.353 294.000,105.243 294.000 C 105.133 294.000,105.654 294.630,106.400 295.400 " stroke="none" fill="#c28bb3" fill-rule="evenodd"></path><path id="path2" d="M0.000 200.200 L 0.000 400.400 200.000 400.400 L 400.000 400.400 400.000 200.200 L 400.000 0.000 200.000 0.000 L 0.000 0.000 0.000 200.200 M327.400 66.955 C 329.961 68.168,331.670 69.988,333.078 73.000 L 334.200 75.400 334.200 115.000 C 334.200 159.215,334.421 155.800,331.339 159.219 C 327.029 163.999,319.771 163.999,315.461 159.219 C 312.464 155.894,312.623 157.421,312.400 129.800 L 312.200 105.000 254.600 162.462 C 213.682 203.281,196.493 220.176,195.249 220.796 C 187.773 224.520,179.240 218.989,179.659 210.690 C 179.966 204.616,175.735 209.229,238.964 146.029 C 270.092 114.916,295.468 89.311,295.356 89.129 C 295.244 88.948,284.318 88.798,271.076 88.796 L 247.000 88.792 244.985 87.854 C 237.883 84.547,236.484 75.762,242.051 69.437 C 245.231 65.825,242.365 66.044,286.600 66.025 L 325.400 66.008 327.400 66.955 M228.649 98.955 C 240.010 101.980,242.103 118.811,231.897 125.071 C 231.602 125.252,230.964 125.968,230.480 126.662 C 229.380 128.239,226.704 129.832,224.151 130.431 C 222.757 130.758,208.837 130.916,175.400 130.982 C 142.633 131.047,128.282 131.206,127.540 131.512 C 125.956 132.166,125.945 132.771,126.079 207.600 L 126.200 275.000 200.400 275.000 L 274.600 275.000 274.800 223.800 L 275.000 172.600 276.065 170.600 C 281.743 159.937,296.033 160.058,301.673 170.817 L 303.000 173.348 303.117 224.374 C 303.261 286.833,303.559 283.750,296.437 293.519 C 289.511 303.019,286.236 305.680,279.235 307.496 C 276.171 308.291,133.185 308.752,125.600 307.991 C 117.700 307.199,109.892 302.577,106.849 296.892 C 106.612 296.449,105.610 295.140,104.622 293.982 C 102.119 291.050,99.643 286.094,98.545 281.818 L 97.616 278.200 97.608 201.250 L 97.600 124.299 98.451 120.650 C 101.006 109.698,110.365 100.594,120.863 98.849 C 124.672 98.216,226.248 98.316,228.649 98.955 " stroke="none" fill="#fbfbfb" fill-rule="evenodd"></path><path id="path3" d="M239.325 78.882 C 239.712 83.102,243.271 87.342,246.800 87.787 L 248.600 88.014 246.728 87.476 C 243.085 86.429,240.405 83.449,240.186 80.200 C 240.121 79.237,239.862 78.124,239.610 77.725 C 239.240 77.137,239.186 77.356,239.325 78.882 M260.929 88.300 C 267.710 88.361,278.690 88.361,285.329 88.300 C 291.968 88.238,286.420 88.188,273.000 88.188 C 259.580 88.188,254.148 88.238,260.929 88.300 M313.200 102.532 C 313.200 102.825,312.795 103.283,312.300 103.550 C 311.805 103.817,287.010 128.439,257.200 158.265 C 202.280 213.215,196.990 218.458,195.200 219.715 C 194.232 220.396,194.245 220.397,195.600 219.756 C 196.435 219.361,220.213 195.908,254.514 161.647 C 321.983 94.256,312.255 103.782,312.990 104.392 C 313.517 104.829,313.600 104.702,313.600 103.449 C 313.600 102.652,313.510 102.000,313.400 102.000 C 313.290 102.000,313.200 102.240,313.200 102.532 M238.128 112.400 C 238.128 113.830,238.201 114.415,238.289 113.700 C 238.378 112.985,238.378 111.815,238.289 111.100 C 238.201 110.385,238.128 110.970,238.128 112.400 M151.700 126.300 C 165.505 126.358,188.095 126.358,201.900 126.300 C 215.705 126.242,204.410 126.194,176.800 126.194 C 149.190 126.194,137.895 126.242,151.700 126.300 M313.271 152.000 C 313.284 154.036,313.775 155.679,314.047 154.600 C 314.158 154.160,314.027 153.080,313.755 152.200 L 313.261 150.600 313.271 152.000 M332.280 155.918 C 331.938 156.770,331.160 158.083,330.549 158.834 L 329.438 160.200 330.516 159.234 C 331.612 158.250,333.452 154.919,333.096 154.563 C 332.988 154.455,332.621 155.065,332.280 155.918 M314.000 156.065 C 314.000 157.020,317.203 160.442,318.669 161.055 C 320.814 161.951,320.735 161.670,318.478 160.376 C 317.087 159.578,315.951 158.519,315.178 157.301 C 314.530 156.279,314.000 155.723,314.000 156.065 M328.000 160.600 C 327.312 160.993,327.203 161.176,327.651 161.186 C 328.009 161.194,328.526 160.930,328.800 160.600 C 329.409 159.866,329.284 159.866,328.000 160.600 M322.307 161.890 C 323.026 161.979,324.106 161.977,324.707 161.886 C 325.308 161.795,324.720 161.722,323.400 161.724 C 322.080 161.726,321.588 161.801,322.307 161.890 M274.800 225.480 C 274.690 253.024,274.736 275.424,274.902 275.258 C 275.067 275.093,275.157 252.557,275.102 225.178 L 275.000 175.400 274.800 225.480 M302.594 226.200 C 302.594 254.140,302.642 265.511,302.700 251.469 C 302.758 237.427,302.758 214.567,302.700 200.669 C 302.642 186.771,302.594 198.260,302.594 226.200 M180.402 211.700 C 180.405 213.295,181.097 215.889,181.603 216.202 C 181.808 216.329,181.711 215.682,181.388 214.766 C 180.703 212.825,180.650 212.260,181.184 212.590 C 181.412 212.731,181.396 212.333,181.145 211.614 C 180.602 210.056,180.399 210.079,180.402 211.700 M183.001 217.951 C 184.812 219.990,187.705 221.203,190.600 221.137 L 193.000 221.083 190.200 220.814 C 187.120 220.519,185.323 219.759,183.201 217.855 L 181.802 216.600 183.001 217.951 M163.500 275.900 C 183.795 275.957,217.005 275.957,237.300 275.900 C 257.595 275.843,240.990 275.796,200.400 275.796 C 159.810 275.796,143.205 275.843,163.500 275.900 M293.986 295.100 L 291.800 297.400 294.100 295.214 C 296.237 293.182,296.583 292.800,296.286 292.800 C 296.224 292.800,295.189 293.835,293.986 295.100 M114.800 301.000 C 115.350 301.314,115.980 301.572,116.200 301.572 C 116.420 301.572,116.150 301.314,115.600 301.000 C 115.050 300.686,114.420 300.428,114.200 300.428 C 113.980 300.428,114.250 300.686,114.800 301.000 M121.700 303.076 C 122.085 303.176,122.715 303.176,123.100 303.076 C 123.485 302.975,123.170 302.893,122.400 302.893 C 121.630 302.893,121.315 302.975,121.700 303.076 M200.400 303.200 L 123.800 303.403 200.000 303.478 C 241.910 303.520,276.920 303.405,277.800 303.223 C 279.009 302.973,279.107 302.905,278.200 302.944 C 277.540 302.973,242.530 303.088,200.400 303.200 " stroke="none" fill="#8c8c8c" fill-rule="evenodd"></path><path id="path4" d="M247.114 66.328 C 246.737 66.478,264.156 66.552,285.823 66.492 L 325.216 66.385 327.211 67.243 C 329.485 68.221,331.335 70.137,332.558 72.780 C 333.394 74.586,333.401 74.896,333.511 114.300 L 333.622 154.000 332.755 156.015 C 329.849 162.772,321.321 164.341,316.199 159.062 C 312.710 155.467,312.800 156.281,312.800 128.265 C 312.800 114.919,312.666 104.000,312.502 104.000 C 312.338 104.000,286.193 130.002,254.402 161.783 C 191.483 224.681,195.253 221.182,190.400 221.182 C 182.580 221.182,178.231 213.900,181.213 205.800 C 182.066 203.482,183.343 202.154,218.648 166.854 C 238.752 146.753,255.200 130.194,255.200 130.055 C 255.200 128.902,182.237 202.868,181.088 205.184 C 176.854 213.726,182.471 222.806,191.419 221.883 C 195.548 221.457,194.071 222.846,254.600 162.462 L 312.200 105.000 312.400 129.800 C 312.623 157.421,312.464 155.894,315.461 159.219 C 320.742 165.077,330.193 163.423,333.539 156.056 C 334.139 154.733,334.200 150.974,334.200 115.000 L 334.200 75.400 333.078 73.000 C 331.670 69.988,329.961 68.168,327.400 66.955 L 325.400 66.008 286.600 66.032 C 265.260 66.045,247.492 66.179,247.114 66.328 M242.400 69.122 C 236.437 75.309,237.700 84.461,244.985 87.854 L 247.000 88.792 271.033 88.796 C 284.252 88.798,295.192 88.925,295.344 89.077 C 295.497 89.230,294.587 90.400,293.323 91.677 C 292.059 92.955,291.160 94.000,291.325 94.000 C 291.713 94.000,296.400 89.141,296.400 88.739 C 296.400 88.571,285.195 88.381,271.500 88.317 C 253.418 88.232,246.311 88.070,245.544 87.727 C 238.561 84.596,237.131 74.721,242.854 69.147 C 243.954 68.076,244.718 67.200,244.553 67.200 C 244.388 67.200,243.419 68.065,242.400 69.122 M289.800 95.200 C 289.402 95.640,289.278 96.000,289.524 96.000 C 289.770 96.000,290.165 95.640,290.400 95.200 C 290.635 94.760,290.760 94.400,290.676 94.400 C 290.592 94.400,290.198 94.760,289.800 95.200 M284.600 100.400 C 282.408 102.600,280.718 104.400,280.843 104.400 C 281.120 104.400,288.800 96.864,288.800 96.592 C 288.800 96.211,288.526 96.459,284.600 100.400 M234.399 102.601 C 235.168 103.480,235.955 104.380,236.148 104.600 C 236.340 104.820,236.311 104.640,236.083 104.200 C 235.855 103.760,235.068 102.860,234.334 102.201 L 233.000 101.002 234.399 102.601 M267.800 117.200 C 260.983 124.020,255.514 129.600,255.647 129.600 C 255.924 129.600,280.400 105.256,280.400 104.981 C 280.400 104.609,279.930 105.066,267.800 117.200 M237.078 106.595 C 237.444 107.362,237.814 107.919,237.901 107.832 C 238.084 107.649,236.870 105.200,236.596 105.200 C 236.495 105.200,236.712 105.828,237.078 106.595 M238.493 112.400 C 238.493 113.170,238.575 113.485,238.676 113.100 C 238.776 112.715,238.776 112.085,238.676 111.700 C 238.575 111.315,238.493 111.630,238.493 112.400 M99.665 116.217 C 99.409 116.778,99.207 117.454,99.216 117.719 C 99.224 117.983,99.497 117.588,99.822 116.839 C 100.505 115.265,100.361 114.690,99.665 116.217 M235.200 121.400 C 234.683 121.950,234.427 122.394,234.630 122.387 C 234.972 122.376,236.621 120.400,236.288 120.400 C 236.206 120.400,235.717 120.850,235.200 121.400 M232.200 124.166 C 228.871 126.742,232.224 126.589,176.500 126.709 L 126.000 126.818 126.074 131.509 C 126.115 134.089,126.214 135.247,126.296 134.082 C 126.520 130.858,122.912 131.086,175.400 130.982 C 208.837 130.916,222.757 130.758,224.151 130.431 C 226.774 129.816,229.479 128.174,230.534 126.558 C 231.011 125.829,231.795 125.020,232.279 124.760 C 232.762 124.500,233.251 124.043,233.366 123.744 C 233.630 123.057,233.636 123.055,232.200 124.166 M97.796 201.200 C 97.796 243.990,97.843 261.495,97.900 240.100 C 97.957 218.705,97.957 183.695,97.900 162.300 C 97.843 140.905,97.796 158.410,97.796 201.200 M288.100 162.676 C 288.485 162.776,289.115 162.776,289.500 162.676 C 289.885 162.575,289.570 162.493,288.800 162.493 C 288.030 162.493,287.715 162.575,288.100 162.676 M301.942 172.187 C 302.292 173.160,302.646 173.888,302.729 173.805 C 302.948 173.585,301.999 170.847,301.624 170.615 C 301.449 170.507,301.592 171.214,301.942 172.187 M302.994 226.200 C 302.994 254.360,303.042 265.821,303.100 251.669 C 303.158 237.517,303.158 214.477,303.100 200.469 C 303.042 186.461,302.994 198.040,302.994 226.200 M163.500 275.500 C 183.795 275.557,217.005 275.557,237.300 275.500 C 257.595 275.443,240.990 275.396,200.400 275.396 C 159.810 275.396,143.205 275.443,163.500 275.500 M302.046 281.267 C 302.021 281.634,301.896 282.264,301.770 282.667 C 301.552 283.362,301.563 283.363,301.997 282.687 C 302.248 282.296,302.373 281.666,302.273 281.287 C 302.111 280.668,302.088 280.666,302.046 281.267 M99.228 284.600 C 99.228 284.820,99.486 285.450,99.800 286.000 C 100.114 286.550,100.372 286.820,100.372 286.600 C 100.372 286.380,100.114 285.750,99.800 285.200 C 99.486 284.650,99.228 284.380,99.228 284.600 M299.878 287.405 C 299.512 288.172,299.295 288.800,299.396 288.800 C 299.670 288.800,300.884 286.351,300.701 286.168 C 300.614 286.081,300.244 286.638,299.878 287.405 M102.065 290.430 C 102.569 291.326,103.754 292.966,104.700 294.073 C 105.645 295.181,106.612 296.449,106.849 296.892 C 109.892 302.577,117.700 307.199,125.600 307.991 C 133.185 308.752,276.171 308.291,279.235 307.496 C 286.236 305.680,289.465 303.057,296.443 293.519 C 297.457 292.134,298.410 290.730,298.562 290.400 C 298.713 290.070,298.514 290.240,298.119 290.777 C 293.799 296.653,288.965 300.202,282.200 302.464 L 279.400 303.400 200.200 303.400 L 121.000 303.400 117.844 302.284 C 111.163 299.922,104.698 294.830,102.169 289.940 C 101.845 289.313,101.483 288.800,101.364 288.800 C 101.246 288.800,101.561 289.533,102.065 290.430 " stroke="none" fill="#cccccb" fill-rule="evenodd"></path></g></svg>